<svg id="Layer_1" data-name="Layer 1" xmlns="http://www.w3.org/2000/svg" viewBox="0 0 307.78 319.41"><defs><style>.cls-1{font-size:132.26px;font-family:FatFishRegular, Fat-Fish;}.cls-1,.cls-7{fill:#fff;}.cls-2{letter-spacing:-0.01em;}.cls-3{letter-spacing:-0.01em;}.cls-4{letter-spacing:0em;}.cls-5{fill:none;}.cls-6{fill:#212168;}</style></defs><text class="cls-1" transform="translate(0 215.33)">F<tspan class="cls-2" x="64.54" y="0">W</tspan><tspan class="cls-3" x="163.87" y="0">s</tspan><tspan class="cls-4" x="224.45" y="0">.</tspan></text><path class="cls-5" d="M227.68,89" transform="translate(-53.95 -47.23)"/><path class="cls-6" d="M70.7,289.86c51.63,63.45,139.4,82.81,208.17,34.85,43.64-30.61,67.07-85.71,57.34-138.27-11.1-67.12-71-123.25-140.22-123.31A147.13,147.13,0,0,0,150.51,70,144.44,144.44,0,0,0,76.58,124.3l-1.38-6.79c31.1,19.07,73.52,34.46,109.53,21.81,15.83-5.91,33.16-15.25,39.05-32.09a63.12,63.12,0,0,0,2.32-21.07c2.11,10.65,1.75,22.65-4.4,32-9.58,14.59-28,24.33-44.38,29.23-25.81,7.16-56.64,1.42-82.5-9.43a184.85,184.85,0,0,1-29-14.88C86.62,89.53,120,63.92,158.15,53.33c53.61-15.44,115.14-1.1,155.76,37.52C403,176.61,361,329,242.78,361c-65.2,18.44-141.14-9.55-172.08-71.18Z" transform="translate(-53.95 -47.23)"/><circle class="cls-7" cx="93.57" cy="46.76" r="9.48"/></svg>